<svg width="115" height="90" viewBox="0 0 115 90" fill="none" xmlns="http://www.w3.org/2000/svg">
<g clip-path="url(#clip0_1070_8072)">
<path d="M59.3625 87.9885C82.8101 87.9885 101.818 68.7419 101.818 45.0001C101.818 21.2583 82.8101 2.01172 59.3625 2.01172C35.9148 2.01172 16.9067 21.2583 16.9067 45.0001C16.9067 68.7419 35.9148 87.9885 59.3625 87.9885Z" stroke="#FCEBDF" stroke-width="4" stroke-miterlimit="10"/>
<path d="M12.1487 48.8925C-4.47996 57.2911 3.3377 62.3604 7.49983 64.7743C9.33753 65.8405 11.5328 66.0114 13.6487 66.0818C43.2405 67.148 71.7397 55.0079 97.7356 40.6449C104.043 37.1547 110.838 32.8297 112.686 25.789C113.063 24.3306 113.202 22.7515 112.656 21.3534C111.056 17.3 105.424 17.4207 101.193 18.2555" stroke="#FCEBDF" stroke-width="4" stroke-miterlimit="10"/>
</g>
<defs>
<clipPath id="clip0_1070_8072">
<rect width="115" height="90" fill="white"/>
</clipPath>
</defs>
</svg>
