<svg width="151" height="138" viewBox="0 0 151 138" fill="none" xmlns="http://www.w3.org/2000/svg">
<path d="M91.7324 26.2252C77.1256 32.5227 74.2063 52.4505 74.2063 52.4505C74.2063 52.4505 71.2871 32.5227 56.6802 26.2252C71.2871 19.9491 74.2063 0 74.2063 0C74.2063 0 77.1256 19.9491 91.7324 26.2252Z" fill="#FEEBE1"/>
<path d="M27.5198 127.796C20.9674 127.796 20.9568 137.989 27.5198 137.989C34.0721 137.989 34.0827 127.796 27.5198 127.796Z" fill="#FEEBE1"/>
<path d="M33.2199 7.51416C26.6676 7.51416 26.6569 17.7075 33.2199 17.7075C39.7828 17.7075 39.7828 7.51416 33.2199 7.51416Z" fill="#FEEBE1"/>
<path d="M4.92201 34.9136C-1.6303 34.9136 -1.64095 45.1069 4.92201 45.1069C11.485 45.1069 11.485 34.9136 4.92201 34.9136Z" fill="#FEEBE1"/>
<path d="M145.089 72.4956C138.536 72.4956 138.526 82.689 145.089 82.689C151.651 82.689 151.651 72.4956 145.089 72.4956Z" fill="#FEEBE1"/>
</svg>
