<?xml version="1.0" encoding="utf-8"?>
<!-- Generator: Adobe Illustrator 26.5.3, SVG Export Plug-In . SVG Version: 6.00 Build 0)  -->
<svg version="1.1" id="圖層_1" xmlns="http://www.w3.org/2000/svg" xmlns:xlink="http://www.w3.org/1999/xlink" x="0px" y="0px"
	 viewBox="0 0 1765 340" style="enable-background:new 0 0 1765 340;" xml:space="preserve">
<style type="text/css">
	.st0{fill:#FEEBE1;}
</style>
<path class="st0" d="M1772.4,78c-144.3-1-287,32.6-377.6,87.5c-24.1,14.6-42.9,30.6-60.5,47.3c-19.1,18.1-40.4,36.8-78,47
	c-18.4,5-39.3,7.2-60.1,5.1c-20.5-2-38.9-7.2-59.1-9.9c-31.6-4.2-63.7-0.8-93.4,5c-57.4,11.4-118.6,35.5-184.1,26.6
	c-60.9-8.4-95.4-38.4-150.3-52.1c-30.2-7.5-62-7.7-94.2-3.1c-36.7,5.2-73.3,15.4-112.7,13.3c-39.4-2.1-72.1-16.3-93-32
	c-23.7-17.8-36.3-38.2-52.8-57.6c-29.3-34.5-71.3-67.7-132.2-91c-58.8-22.5-135.6-34.6-210-28.3c-4.6,0.4-9.3,0.9-13.8,1.4V41
	c65-7.8,135.9,0.2,192.1,17.8C259.6,79.7,306.5,113,338.5,148c31.3,34.2,48.7,77.8,123.2,96.4c34,8.5,69.4,7,104.7,1.3
	c35.1-5.7,71.8-14.8,109.8-11.1c60.8,5.9,97.6,35.4,149.1,49.9c26.2,7.3,55.2,10,85,7.5c32.1-2.7,61.7-10.4,90.5-17.6
	c29.3-7.3,59.9-15.2,93-17c18.2-1,35.8,0.3,53,3.3c18.9,3.3,37.2,7.8,57.4,8.8c36.7,1.8,71.3-8.7,94.6-21.7
	c27.3-15.3,42.5-34.4,63-51.8c74-62.7,212.4-105.5,359.2-112.6c17.1-0.8,34.2-1.1,51.3-1V78z"/>
<path class="st0" d="M1772.4,147c-60.5-7.4-118.4,13.4-151.1,35.9c-38.7,26.6-57.3,59-104.3,83c-23.9,12.2-53.8,20.5-88.8,23.1
	c-37.4,2.8-75.6,0.1-113-1.4c-34.8-1.3-68.8-1-103,2.4c-32.4,3.3-63.8,8.4-94.9,13.8c-60.5,10.4-123.7,23-189.5,20.9
	c-67-2.1-116.3-23.1-174-36.5c-26.4-6.2-55-10.4-84.8-9.6c-30.5,0.8-59.3,6.2-86.9,12c-29.6,6.3-58.7,13.5-90.4,17.2
	c-34.8,4.1-69,1.8-102.3-3.9c-33.2-5.7-64.2-13.8-97.3-19.6c-30-5.3-61.7-8.3-93.6-9.1c-64.6-1.7-130.3,5.7-186.1,21.1
	c-4,1.1-7.9,2.3-11.8,3.4v5.6c48.4-15.4,105.8-24.2,164.1-25.5c32.9-0.8,65.9,0.8,97.6,4.9c34.1,4.4,65.5,12.1,97.8,18.6
	c30.1,6.1,62,11.3,95.2,11.1c30.5-0.2,59.5-5,87.1-10.8c29.3-6.1,57.7-13.3,88.5-17.7c30.5-4.3,61.4-4.5,91.7,0.4
	c59.2,9.5,105.4,31.8,166.4,39.5c61.5,7.8,124.7-0.2,183.1-9.8c61.8-10.1,124.1-22.9,190.3-24.4c70.2-1.6,145.3,11,211.9-4.5
	c58.6-13.6,88.7-43.2,116.1-69.5c29.7-28.6,66.9-60.4,138.8-67.8c14.2-1.5,29-1.5,43.2-0.1V147z"/>
<path class="st0" d="M1772.4,14.5C1712.7-2.3,1638-3.9,1572.5,6.6c-66.7,10.7-121.9,33.4-161.8,60.2c-19.5,13.1-34.2,27.3-49.8,41.5
	c-14.7,13.3-30.5,26.9-53.8,37.4c-27.3,12.4-61.2,16.4-98.4,17.1c-39.1,0.7-76.5,0.5-113.3,7.7c-71.4,14-124.8,44-201.8,52.5
	c-36.8,4.1-71.4,0.7-103.2-8.5c-26.4-7.6-49.3-17.6-75-25.7c-25.8-8.1-54.1-13.4-85.7-12.5c-21.1,0.7-41.9,3.3-63.1,2.8
	c-19.3-0.4-37.6-3.8-53.5-8.8c-33.9-10.6-55-27.3-74.6-43.5c-17.8-14.8-36.4-29.1-59.8-42.1c-86.4-48.1-218.2-78-352.6-80
	c-8.5-0.1-17.1-0.1-25.6,0v4.3C130,8,257.6,32.6,348.7,75.7c24.7,11.7,46.3,24.7,64.5,38.7c20.3,15.7,37.2,32.6,63.8,46.2
	c22.4,11.5,52.2,20.9,86.2,22.2c21.2,0.8,42.1-1.7,63.1-2.6c17.5-0.7,34.3,0.2,50.7,3.3c56.5,10.4,93.2,36.9,153.3,44.1
	c78.1,9.4,147.3-17.1,207.6-36c31.4-9.8,64.8-18.8,102.6-21.7c39-3,79.3,0.2,117.7-4.9c63.8-8.4,94.5-37.9,122-63.4
	c32.1-29.8,72.5-57.2,132.8-76c62.2-19.4,139.4-26.6,212-17.2c16.6,2.1,32.4,5.3,47.3,9.3V14.5z"/>
</svg>
