<svg width="600" height="138" viewBox="0 0 600 138"  xmlns="http://www.w3.org/2000/svg">
<path d="M159.99 109.6L167.4 107.75V53.4L159.99 51.55V49.7H171.11C175.97 49.7 179.8 51.26 182.6 54.39C183.67 55.63 184.58 57.15 185.32 58.96C186.56 56.66 187.87 54.8 189.27 53.4C192.97 49.69 197.21 47.84 201.99 47.84C206.77 47.84 210.96 48.89 214.59 50.99C218.21 53.09 221.01 55.95 222.99 59.57C224.23 57.18 225.54 55.25 226.94 53.77C230.73 49.82 234.97 47.84 239.66 47.84C244.02 47.84 247.95 48.75 251.46 50.56C254.96 52.37 257.67 54.84 259.61 57.97C261.54 61.1 262.51 64.51 262.51 68.22V107.74L269.92 109.59V111.44H253.86C246.45 111.44 242.75 107.73 242.75 100.32V68.21C242.75 62.86 241.93 58.84 240.28 56.17C238.63 53.5 236.78 52.16 234.72 52.16C232.33 52.16 229.9 53.81 227.43 57.1C226.44 58.67 225.58 60.31 224.84 62.04V107.74L232.25 109.59V111.44H197.67V109.59L205.08 107.74V68.22C205.08 62.87 204.26 58.85 202.61 56.18C200.96 53.51 199.11 52.17 197.05 52.17C194.66 52.17 192.23 53.82 189.76 57.11C188.77 58.68 187.91 60.32 187.17 62.05V107.75L194.58 109.6V111.45H160V109.6H159.99Z" fill="white"/>
<path d="M299.56 108.36L345.38 28.08H313.14C313.14 33.1 311.78 37.92 309.06 42.53C307.91 44.42 306.59 45.99 305.11 47.22H301.4V24.99H368.09V28.08L322.39 108.36H355.74C355.74 103.17 357.06 98.36 359.69 93.91C360.84 92.02 362.2 90.45 363.77 89.22H367.48V111.45H299.55V108.36H299.56Z" fill="white"/>
<path d="M380.52 104.59C374.72 98.79 371.81 90.78 371.81 80.57C371.81 70.36 374.71 62.35 380.52 56.55C386.32 50.74 394.33 47.84 404.54 47.84C414.75 47.84 422.76 50.74 428.56 56.55C434.36 62.35 437.27 70.36 437.27 80.57C437.27 90.78 434.37 98.79 428.56 104.59C422.76 110.39 414.75 113.3 404.54 113.3C394.33 113.3 386.32 110.4 380.52 104.59ZM412.88 103.91C415.14 99.3 416.28 91.52 416.28 80.57C416.28 69.62 415.15 61.84 412.88 57.23C410.61 52.62 407.83 50.31 404.54 50.31C401.25 50.31 398.47 52.62 396.2 57.23C393.94 61.84 392.8 69.62 392.8 80.57C392.8 91.52 393.93 99.3 396.2 103.91C398.46 108.52 401.24 110.83 404.54 110.83C407.84 110.83 410.61 108.53 412.88 103.91Z" fill="white"/>
<path d="M440.97 109.6L448.38 107.75V53.4L440.97 51.55V49.7H452.09C456.95 49.7 460.78 51.26 463.58 54.39C464.65 55.63 465.56 57.15 466.3 58.96C467.45 56.82 468.81 54.97 470.38 53.4C474.09 49.69 478.7 47.84 484.21 47.84C488.82 47.84 492.96 48.81 496.62 50.74C500.28 52.68 503.14 55.21 505.2 58.34C507.26 61.47 508.29 64.76 508.29 68.22V107.74L515.7 109.59V111.44H499.64C492.23 111.44 488.52 107.73 488.52 100.32V68.21C488.52 63.02 487.59 59.05 485.74 56.29C483.89 53.53 481.72 52.15 479.26 52.15C476.13 52.15 473.33 53.8 470.86 57.09C469.79 58.49 468.88 60.14 468.14 62.03V107.73L475.55 109.58V111.43H440.97V109.58V109.6Z" fill="white"/>
<path d="M525.7 104.59C519.85 98.79 516.93 90.78 516.93 80.57C516.93 73.9 518.21 68.09 520.76 63.15C523.31 58.21 526.87 54.42 531.44 51.79C536.01 49.16 541.26 47.84 547.19 47.84C553.12 47.84 558.33 48.95 562.81 51.17C567.3 53.39 570.76 56.38 573.18 60.13C575.61 63.88 576.82 68.02 576.82 72.54C576.82 74.6 576.61 76.37 576.2 77.85L575.58 79.95C572.04 80.69 568.21 81.31 564.09 81.8C555.44 83.03 546.72 83.65 537.91 83.65C537.91 93.2 539.23 100.01 541.86 104.09C544.49 108.17 548.12 110.2 552.73 110.2C555.94 110.2 558.92 109.44 561.69 107.92C564.45 106.4 566.63 104.38 568.23 101.87C569.84 99.36 570.64 96.79 570.64 94.15H573.73C573.73 97.44 572.74 100.57 570.77 103.54C568.79 106.51 566.03 108.87 562.49 110.64C558.95 112.41 554.87 113.3 550.26 113.3C539.72 113.3 531.53 110.4 525.68 104.59H525.7ZM550.77 79.95C552.17 79.87 553.65 79.66 555.22 79.33C555.3 78.92 555.51 78.01 555.84 76.61C556.25 74.55 556.46 72.37 556.46 70.07C556.46 63.24 555.55 58.23 553.74 55.06C551.93 51.89 549.74 50.3 547.19 50.3C541.02 50.3 537.93 60.39 537.93 80.56C543.2 80.56 547.48 80.36 550.78 79.94L550.77 79.95Z" fill="white"/>
<path d="M83.5499 8.62C50.2599 8.62 23.1699 35.7 23.1699 69C23.1699 102.3 50.2599 129.38 83.5499 129.38C116.84 129.38 143.93 102.3 143.93 69C143.93 35.7 116.84 8.62 83.5499 8.62ZM83.5499 13.19C114.32 13.19 139.36 38.23 139.36 69C139.36 99.77 114.33 124.81 83.5499 124.81C52.7699 124.81 27.7399 99.77 27.7399 69C27.7399 38.23 52.7699 13.19 83.5499 13.19Z" fill="white"/>
<path d="M83.55 115.07C108.95 115.07 129.62 94.4 129.62 69C129.62 43.6 108.95 22.93 83.55 22.93C58.15 22.93 37.48 43.6 37.48 69C37.48 94.4 58.15 115.07 83.55 115.07ZM83.55 27.5C106.43 27.5 125.05 46.12 125.05 69C125.05 91.88 106.43 110.5 83.55 110.5C60.67 110.5 42.05 91.88 42.05 69C42.05 46.12 60.66 27.5 83.55 27.5Z" fill="white"/>
<path d="M83.5499 99.17C100.18 99.17 113.72 85.64 113.72 69C113.72 52.36 100.19 38.83 83.5499 38.83C66.9099 38.83 53.3799 52.36 53.3799 69C53.3799 85.64 66.9099 99.17 83.5499 99.17ZM83.5499 43.4C97.6699 43.4 109.15 54.88 109.15 69C109.15 83.12 97.6699 94.6 83.5499 94.6C69.4299 94.6 57.9499 83.12 57.9499 69C57.9499 54.88 69.4299 43.4 83.5499 43.4Z" fill="white"/>
<path d="M83.5499 81.92C90.6699 81.92 96.4699 76.12 96.4699 69C96.4699 61.88 90.6699 56.08 83.5499 56.08C76.4299 56.08 70.6299 61.88 70.6299 69C70.6299 76.12 76.4299 81.92 83.5499 81.92ZM83.5499 60.65C88.1499 60.65 91.8999 64.4 91.8999 69C91.8999 73.6 88.1499 77.35 83.5499 77.35C78.9499 77.35 75.1999 73.61 75.1999 69C75.1999 64.39 78.9499 60.65 83.5499 60.65Z" fill="white"/>
</svg>
